<svg width="204" height="104" viewBox="0 0 204 104" fill="none" xmlns="http://www.w3.org/2000/svg">
<rect width="204" height="104" rx="16" fill="white"/>
<g clip-path="url(#clip0_395_742)">
<path d="M122.681 66.6242C112.698 73.9949 98.2279 77.9274 85.7694 77.9274C68.3005 77.9274 52.5741 71.4556 40.6764 60.6917C39.7416 59.8453 40.5792 58.6917 41.7009 59.3509C54.5408 66.8339 70.4168 71.3357 86.8163 71.3357C97.8764 71.3357 110.043 69.0436 121.231 64.2871C122.921 63.5681 124.334 65.3957 122.681 66.6242Z" fill="#FF9900"/>
<path d="M126.832 61.8675C125.561 60.2345 118.397 61.096 115.181 61.478C114.201 61.5978 114.052 60.7439 114.934 60.1297C120.64 56.1073 130.003 57.2683 131.095 58.6166C132.186 59.9724 130.81 69.373 125.449 73.8598C124.626 74.5489 123.841 74.1819 124.207 73.2681C125.411 70.2569 128.111 63.5079 126.832 61.8675Z" fill="#FF9900"/>
<path d="M115.405 31.7333V27.8232C115.405 27.2315 115.853 26.8345 116.392 26.8345H133.868C134.429 26.8345 134.878 27.239 134.878 27.8232V31.1715C134.87 31.7333 134.399 32.4673 133.562 33.6284L124.506 46.5795C127.871 46.4971 131.423 46.999 134.474 48.7218C135.162 49.1113 135.349 49.6806 135.401 50.2424V54.4146C135.401 54.9839 134.773 55.6505 134.115 55.306C128.738 52.482 121.597 52.1749 115.652 55.3359C115.046 55.6655 114.41 55.0063 114.41 54.4371V50.4746C114.41 49.8379 114.418 48.7518 115.053 47.7855L125.545 32.7145H116.414C115.853 32.7145 115.405 32.3175 115.405 31.7333Z" fill="#221F1F"/>
<path d="M51.6553 56.1298H46.3384C45.8299 56.0924 45.4261 55.7104 45.3887 55.2235V27.8906C45.3887 27.3437 45.8448 26.9093 46.4132 26.9093H51.3712C51.8871 26.9317 52.2984 27.3288 52.3358 27.8231V31.3961H52.4331C53.7268 27.943 56.1571 26.3325 59.4326 26.3325C62.7603 26.3325 64.8392 27.943 66.3348 31.3961C67.6211 27.943 70.545 26.3325 73.6783 26.3325C75.9068 26.3325 78.3447 27.2539 79.8328 29.3212C81.5154 31.6208 81.1714 34.9616 81.1714 37.8904L81.1639 55.1411C81.1639 55.6879 80.7078 56.1298 80.1394 56.1298H74.83C74.299 56.0924 73.8728 55.6654 73.8728 55.1411V40.6544C73.8728 39.5009 73.9775 36.6245 73.7232 35.5309C73.3269 33.6957 72.1379 33.1789 70.5974 33.1789C69.3111 33.1789 67.9651 34.0403 67.4192 35.4185C66.8733 36.7968 66.9256 39.1039 66.9256 40.6544V55.1411C66.9256 55.6879 66.4694 56.1298 65.9011 56.1298H60.5917C60.0532 56.0924 59.6345 55.6654 59.6345 55.1411L59.627 40.6544C59.627 37.6058 60.128 33.1189 56.3516 33.1189C52.5303 33.1189 52.6798 37.4934 52.6798 40.6544V55.1411C52.6798 55.6879 52.2237 56.1298 51.6553 56.1298Z" fill="#221F1F"/>
<path d="M149.924 26.3325C157.813 26.3325 162.083 33.1189 162.083 41.748C162.083 50.085 157.365 56.6991 149.924 56.6991C142.177 56.6991 137.959 49.9127 137.959 41.4559C137.959 32.9467 142.229 26.3325 149.924 26.3325ZM149.969 31.913C146.05 31.913 145.804 37.2612 145.804 40.5945C145.804 43.9353 145.751 51.0662 149.924 51.0662C154.044 51.0662 154.239 45.3135 154.239 41.8079C154.239 39.5009 154.142 36.7444 153.446 34.5571C152.848 32.6545 151.659 31.913 149.969 31.913Z" fill="#221F1F"/>
<path d="M172.314 56.1298H167.019C166.488 56.0924 166.062 55.6654 166.062 55.1411L166.055 27.8007C166.1 27.2988 166.541 26.9093 167.079 26.9093H172.007C172.471 26.9317 172.852 27.2464 172.957 27.6733V31.853H173.054C174.542 28.1153 176.629 26.3325 180.3 26.3325C182.686 26.3325 185.012 27.1939 186.507 29.5534C187.898 31.7407 187.898 35.4185 187.898 38.0627V55.2684C187.838 55.7478 187.397 56.1298 186.874 56.1298H181.542C181.056 56.0924 180.652 55.7328 180.6 55.2684V40.4222C180.6 37.4335 180.944 33.059 177.272 33.059C175.978 33.059 174.789 33.9279 174.198 35.2462C173.451 36.9166 173.353 38.5795 173.353 40.4222V55.1411C173.346 55.6879 172.882 56.1298 172.314 56.1298Z" fill="#221F1F"/>
<path d="M101.473 43.0738V41.9203C97.6295 41.9203 93.5689 42.7442 93.5689 47.2835C93.5689 49.5831 94.7579 51.1411 96.7995 51.1411C98.2951 51.1411 99.6337 50.2198 100.479 48.7217C101.526 46.879 101.473 45.1487 101.473 43.0738ZM106.835 56.0549C106.484 56.3695 105.975 56.392 105.579 56.1822C103.814 54.7141 103.5 54.0325 102.528 52.6317C99.6112 55.613 97.5473 56.5043 93.7633 56.5043C89.2914 56.5043 85.8066 53.7403 85.8066 48.2048C85.8066 43.8828 88.1473 40.939 91.475 39.5008C94.3616 38.2274 98.3923 38.0027 101.473 37.6507V36.9615C101.473 35.6956 101.57 34.1975 100.83 33.1039C100.18 32.1227 98.9382 31.7182 97.8464 31.7182C95.8198 31.7182 94.0101 32.7594 93.5689 34.9166C93.4792 35.396 93.1277 35.8679 92.6491 35.8904L87.4892 35.3361C87.0555 35.2387 86.5769 34.8867 86.6965 34.22C87.8856 27.9579 93.5315 26.0703 98.5867 26.0703C101.174 26.0703 104.554 26.7594 106.596 28.722C109.183 31.1414 108.936 34.3698 108.936 37.8829V46.1824C108.936 48.6767 109.968 49.7703 110.941 51.1186C111.285 51.598 111.359 52.1748 110.926 52.5343C109.841 53.4407 107.912 55.1261 106.85 56.0699L106.835 56.0549Z" fill="#221F1F"/>
<path d="M31.7701 43.0738V41.9203C27.9264 41.9203 23.8658 42.7442 23.8658 47.2835C23.8658 49.5831 25.0548 51.1411 27.0963 51.1411C28.5919 51.1411 29.9305 50.2198 30.7756 48.7217C31.8225 46.879 31.7701 45.1487 31.7701 43.0738ZM37.1319 56.0549C36.7805 56.3695 36.272 56.392 35.8756 56.1822C34.1108 54.7141 33.7967 54.0325 32.8246 52.6317C29.9081 55.613 27.8441 56.5043 24.0602 56.5043C19.5883 56.5043 16.1035 53.7403 16.1035 48.2048C16.1035 43.8828 18.4442 40.939 21.7719 39.5008C24.6585 38.2274 28.6892 38.0027 31.7701 37.6507V36.9615C31.7701 35.6956 31.8674 34.1975 31.127 33.1039C30.4764 32.1227 29.2351 31.7182 28.1433 31.7182C26.1167 31.7182 24.307 32.7594 23.8658 34.9166C23.776 35.396 23.4246 35.8679 22.946 35.8904L17.7861 35.3361C17.3524 35.2387 16.8738 34.8867 16.9934 34.22C18.1824 27.9579 23.8284 26.0703 28.8836 26.0703C31.471 26.0703 34.8511 26.7594 36.8926 28.722C39.4801 31.1414 39.2333 34.3698 39.2333 37.8829V46.1824C39.2333 48.6767 40.2653 49.7703 41.2374 51.1186C41.5814 51.598 41.6562 52.1748 41.2225 52.5343C40.1381 53.4407 38.2088 55.1261 37.1469 56.0699L37.1319 56.0549Z" fill="#221F1F"/>
</g>
<defs>
<clipPath id="clip0_395_742">
<rect width="172" height="52" fill="white" transform="translate(16 26)"/>
</clipPath>
</defs>
</svg>
