<svg width="204" height="104" viewBox="0 0 204 104" fill="none" xmlns="http://www.w3.org/2000/svg">
<rect width="204" height="104" rx="16" fill="white"/>
<g clip-path="url(#clip0_395_552)">
<mask id="mask0_395_552" style="mask-type:luminance" maskUnits="userSpaceOnUse" x="55" y="37" width="136" height="31">
<path d="M55.7422 37.9639H190.944V67.6366H55.7422V37.9639Z" fill="white"/>
</mask>
<g mask="url(#mask0_395_552)">
<mask id="mask1_395_552" style="mask-type:luminance" maskUnits="userSpaceOnUse" x="55" y="37" width="136" height="31">
<path d="M55.7422 37.9639H190.944V67.6366H55.7422V37.9639Z" fill="white"/>
</mask>
<g mask="url(#mask1_395_552)">
<path d="M127.796 43.782H130.475V59.8548H127.796V43.782ZM118.02 43.4184C116.282 43.4184 114.689 44.0002 113.385 45.0911V43.782H110.706V59.8548H113.385V50.7639C113.385 48.1457 115.485 46.1093 118.02 46.1093C120.554 46.1093 122.654 48.2184 122.654 50.7639V59.8548H125.334V50.7639C125.334 46.6911 122.075 43.4184 118.02 43.4184ZM105.347 43.7093H108.026V59.2002C107.954 63.782 104.261 67.4911 99.6984 67.5639C96.0776 67.6366 92.7464 65.2366 91.7326 61.7457H94.6293C95.5707 63.7093 97.5259 64.9457 99.6984 64.873C102.812 64.8002 105.275 62.2548 105.419 59.1275V57.8184C102.016 60.9457 96.7293 60.8002 93.6154 57.382C90.5015 53.9639 90.6463 48.6548 94.0499 45.5275C97.2363 42.5457 102.233 42.5457 105.419 45.5275L105.347 43.7093ZM105.347 51.782C105.347 48.6548 102.812 46.0366 99.6984 46.0366C96.5845 46.0366 93.9775 48.582 93.9775 51.7093C93.9775 54.8366 96.5121 57.4548 99.6984 57.4548C102.812 57.4548 105.347 54.9093 105.347 51.782ZM64.0695 46.0366C66.242 46.0366 68.2696 47.3457 69.211 49.3093H72.0353C70.7318 44.873 66.0247 42.3275 61.6073 43.7093C57.1899 45.0184 54.6553 49.7457 56.0312 54.182C57.4071 58.6184 62.0418 61.1639 66.4592 59.782C69.1386 58.982 71.2387 56.873 72.0353 54.182H69.211C67.9075 57.0184 64.504 58.2548 61.6797 56.9457C58.8555 55.6366 57.6244 52.2184 58.9279 49.382C59.8693 47.3457 61.8245 46.0366 64.0695 46.0366ZM90.067 51.782C90.067 56.4366 86.3014 60.1457 81.7391 60.1457C77.1044 60.1457 73.4112 56.3639 73.4112 51.782C73.4112 47.2002 77.032 43.4184 81.6667 43.4184C86.3014 43.4184 90.067 47.1275 90.067 51.782ZM87.3876 51.782C87.3876 48.6548 84.853 46.0366 81.7391 46.0366C78.6252 46.0366 76.0182 48.582 76.0182 51.7093C76.0182 54.8366 78.5528 57.4548 81.6667 57.4548C84.853 57.4548 87.3876 54.9093 87.3876 51.782ZM174.65 43.4184C172.912 43.4184 171.318 44.0002 170.015 45.0911V43.782H167.336V59.8548H170.015V50.7639C170.015 48.1457 172.115 46.0366 174.65 46.0366C177.257 46.0366 179.357 48.1457 179.357 50.6911V59.782H182.036V50.7639C181.964 46.6911 178.705 43.4184 174.65 43.4184ZM161.977 43.782H164.656V59.8548H161.977V57.9639C158.573 61.0911 153.287 60.9457 150.173 57.5275C147.059 54.1093 147.204 48.8002 150.607 45.673C152.128 44.2184 154.156 43.4184 156.256 43.4184C158.356 43.4184 160.384 44.2184 161.977 45.673V43.782ZM161.977 51.782C161.977 48.6548 159.442 46.1093 156.256 46.1093C153.142 46.1093 150.607 48.6548 150.607 51.8548C150.607 54.982 153.142 57.5275 156.256 57.5275C159.442 57.4548 161.977 54.9093 161.977 51.782ZM190.871 46.4002V43.7093H186.888V39.3457H184.209V54.473C184.209 57.4548 186.598 59.8548 189.567 59.8548H190.871V57.1639H189.567C188.119 57.1639 186.888 55.9275 186.888 54.473V46.4002H190.871ZM129.1 37.9639C128.086 37.9639 127.362 38.7639 127.362 39.7093C127.362 40.7275 128.158 41.4548 129.1 41.4548C130.113 41.4548 130.838 40.6548 130.838 39.7093C130.91 38.7639 130.113 37.9639 129.1 37.9639C129.172 37.9639 129.172 37.9639 129.1 37.9639ZM146.48 43.782H133.155V46.473H143.004L133.155 57.1639V59.8548H146.48V57.1639H136.558L146.407 46.473L146.48 43.782Z" fill="#000048"/>
</g>
</g>
<mask id="mask2_395_552" style="mask-type:luminance" maskUnits="userSpaceOnUse" x="13" y="36" width="38" height="32">
<path d="M13 36H50.729V68H13V36Z" fill="white"/>
</mask>
<g mask="url(#mask2_395_552)">
<mask id="mask3_395_552" style="mask-type:luminance" maskUnits="userSpaceOnUse" x="13" y="52" width="23" height="16">
<path d="M13 52L24.0797 68L35.5216 61.0909L29.0765 52H13Z" fill="white"/>
</mask>
<g mask="url(#mask3_395_552)">
<path d="M13 52H35.5216V68H13V52Z" fill="url(#paint0_linear_395_552)"/>
</g>
<mask id="mask4_395_552" style="mask-type:luminance" maskUnits="userSpaceOnUse" x="24" y="52" width="27" height="16">
<path d="M24.0801 68H39.8669L50.7294 52L24.0801 68Z" fill="white"/>
</mask>
<g mask="url(#mask4_395_552)">
<path d="M24.0801 52H50.7294V68H24.0801V52Z" fill="url(#paint1_linear_395_552)"/>
</g>
<mask id="mask5_395_552" style="mask-type:luminance" maskUnits="userSpaceOnUse" x="13" y="36" width="23" height="16">
<path d="M24.0797 36L13 52H29.0765L35.5216 42.9091L24.0797 36Z" fill="white"/>
</mask>
<g mask="url(#mask5_395_552)">
<path d="M13 36H35.5216V52H13V36Z" fill="url(#paint2_linear_395_552)"/>
</g>
<mask id="mask6_395_552" style="mask-type:luminance" maskUnits="userSpaceOnUse" x="24" y="36" width="27" height="16">
<path d="M24.0801 36L50.7294 52L39.8669 36H24.0801Z" fill="white"/>
</mask>
<g mask="url(#mask6_395_552)">
<path d="M24.0801 36H50.7294V52H24.0801V36Z" fill="url(#paint3_linear_395_552)"/>
</g>
</g>
</g>
<defs>
<linearGradient id="paint0_linear_395_552" x1="13.0053" y1="59.982" x2="35.5316" y2="59.982" gradientUnits="userSpaceOnUse">
<stop stop-color="#3D54CE"/>
<stop offset="1" stop-color="#35CACF"/>
</linearGradient>
<linearGradient id="paint1_linear_395_552" x1="24.0748" y1="59.982" x2="50.7585" y2="59.982" gradientUnits="userSpaceOnUse">
<stop stop-color="#13457D"/>
<stop offset="1" stop-color="#279698"/>
</linearGradient>
<linearGradient id="paint2_linear_395_552" x1="12.9963" y1="43.9879" x2="35.5408" y2="43.9879" gradientUnits="userSpaceOnUse">
<stop stop-color="#090086"/>
<stop offset="1" stop-color="#2F96A9"/>
</linearGradient>
<linearGradient id="paint3_linear_395_552" x1="24.0748" y1="43.9879" x2="50.7585" y2="43.9879" gradientUnits="userSpaceOnUse">
<stop stop-color="#3B62CA"/>
<stop offset="1" stop-color="#93DFE3"/>
</linearGradient>
<clipPath id="clip0_395_552">
<rect width="178" height="32" fill="white" transform="translate(13 36)"/>
</clipPath>
</defs>
</svg>
