<svg width="204" height="104" viewBox="0 0 204 104" fill="none" xmlns="http://www.w3.org/2000/svg">
<rect width="204" height="104" rx="16" fill="white"/>
<path d="M16.8073 33.5802L56.005 33.7084V45.3665C56.1327 46.1277 55.1451 45.9953 54.997 45.2424C54.6186 43.3394 51.348 38.7762 50.7144 38.3956H34.3245V52.5939H48.061C49.073 52.2133 50.6815 49.4291 51.7223 46.6325C52.0967 45.6231 52.866 46.256 52.8537 46.5123C52.6029 51.0714 52.6644 59.4282 52.7302 62.8578C52.75 64.1362 52.0967 64.5085 51.7223 63.3667C51.348 62.229 49.4514 58.2988 48.1926 57.2811H34.3245V73.5066H52.0967C53.1046 72.7495 55.7088 67.0197 56.005 65.5221C56.1327 64.8891 57.1404 64.8891 57.1404 65.394V78.8311L29.2849 78.4505C23.6159 78.4505 22.2254 78.4505 16.8074 78.9594C15.9187 79.0421 15.9393 77.7307 16.5523 77.437C22.7273 74.5245 23.4884 76.1669 23.4884 67.297V43.087C23.4884 36.4967 21.6042 36.7532 16.5523 34.846C16.0257 34.6475 16.3054 33.7085 16.8073 33.5802Z" fill="#00478C"/>
<path d="M65.5868 33.3239L83.8609 33.7086L97.8524 62.6059L112.35 34.0892C112.35 34.0892 123.692 34.0892 124.704 34.0892C125.712 34.0892 129.624 33.7086 130.25 33.5804C130.883 33.4523 131.007 34.7222 130.5 34.9746C129.994 35.2271 123.943 37.7629 123.318 38.6524L126.971 73.8877C127.477 75.0295 133.635 77.6441 134.656 77.8179C135.417 77.946 135.182 78.8563 134.783 78.8314C130.883 78.5789 113.251 78.5789 109.45 78.8314C109.071 78.8546 107.479 78.2316 109.199 77.6896C111.214 77.0608 115.25 75.6625 116.13 74.14L113.609 43.4679L96.2149 78.8314H93.3187L77.4348 44.2291L74.662 73.8877C75.7974 76.1672 81.0921 77.1849 81.7215 77.4373C82.3469 77.6898 82.3469 78.6329 81.8449 78.5791C78.0642 78.1985 63.9411 78.451 62.4395 78.7072C61.6784 78.8313 60.3084 77.8673 62.0569 77.3088C66.9936 75.7409 68.6145 77.1847 69.7458 65.6506L72.7737 40.2988C73.1481 36.1162 67.8658 35.6074 65.4633 34.7221C65.1053 34.5897 64.7023 33.3239 65.5868 33.3239Z" fill="#00478C"/>
<path d="M170.996 44.9861L171.375 33.3237C166.199 32.6949 153.446 30.585 142.886 38.3957C131.934 46.5002 128.943 67.2227 143.141 76.5518C152.59 82.7615 169.861 78.4507 171.124 77.8177C171.626 77.5655 172.255 77.1847 172.255 76.6759C172.255 76.167 172.382 65.7747 172.382 65.27C172.382 64.7653 171.625 64.8894 171.247 65.3941C170.873 65.903 168.935 73.3331 167.088 74.2681C163.023 76.3325 153.36 77.6398 148.308 67.2972C144.984 60.4876 144.885 51.2578 149.69 42.8348C154.692 34.0767 164.064 36.5879 165.199 37.2581C167.339 38.524 168.655 41.3331 169.61 44.8661C169.988 46.2561 170.873 46.004 170.996 44.9861Z" fill="#00478C"/>
<path d="M174.533 27.3707C179.82 22.4269 184.489 24.2017 186.122 25.8483C187.764 27.4948 188.842 31.1064 184.995 34.9746C183.099 36.8776 179.19 39.9184 179.19 39.9184C179.19 39.9184 185.369 39.9184 185.242 39.9184C185.871 39.79 186.978 37.6182 187.385 37.0017C187.64 36.6253 187.887 36.7492 187.887 37.2582C187.887 37.763 187.887 43.7203 187.887 43.7203C186.122 43.5922 175.665 43.5922 174.027 43.5922V41.441C176.796 39.2856 179.445 36.2448 181.461 33.7088C183.477 31.1728 183.148 24.4129 176.043 28.3844C174.908 29.0174 174.151 28.3843 174.533 27.3707Z" fill="#00478C"/>
</svg>
