<svg width="204" height="104" viewBox="0 0 204 104" fill="none" xmlns="http://www.w3.org/2000/svg">
<rect width="204" height="104" rx="16" fill="white"/>
<g clip-path="url(#clip0_395_853)">
<path d="M102.089 97H100.757L109.899 71.7431H122.592C123.716 71.7431 124.811 71.3725 125.876 70.6314C126.941 69.8903 127.651 68.9862 128.006 67.919L137.858 40.4387C138.746 38.1265 138.612 36.1848 137.459 34.6136C136.305 33.0425 134.544 32.2569 132.178 32.2569H114.604L100.047 72.8992L91.7041 95.8439C86.7337 94.6581 82.1183 92.7016 77.858 89.9743C73.6568 87.247 70.003 83.9565 66.8964 80.1028C63.7899 76.249 61.3787 71.9209 59.6627 67.1186C57.8876 62.3755 57 57.336 57 52C57 46.8419 57.8284 41.9209 59.4852 37.2372C61.142 32.6126 63.4497 28.4032 66.4083 24.6087C69.3669 20.8142 72.858 17.5534 76.8817 14.8261C80.9053 12.0988 85.284 10.083 90.0178 8.77866L81.497 32.4348L67.0296 71.7431H76.5266L88.6864 38.3043H95.8757L83.716 71.7431H93.213L104.574 40.6166C105.402 38.3636 105.254 36.4368 104.13 34.836C103.006 33.2352 101.26 32.4348 98.8935 32.4348H90.9053L100.047 7H102.089C108.302 7 114.13 8.18577 119.574 10.5573C125.018 12.9289 129.766 16.1453 133.82 20.2065C137.873 24.2678 141.083 29.0257 143.45 34.4802C145.817 39.9348 147 45.7747 147 52C147 58.2253 145.817 64.0652 143.45 69.5198C141.083 74.9743 137.873 79.7322 133.82 83.7935C129.766 87.8547 125.018 91.0711 119.574 93.4427C114.13 95.8142 108.302 97 102.089 97ZM129.16 38.1265H121.97L111.941 65.6957H119.13L129.16 38.1265Z" fill="#024AD8"/>
</g>
<defs>
<clipPath id="clip0_395_853">
<rect width="90" height="90" fill="white" transform="translate(57 7)"/>
</clipPath>
</defs>
</svg>
