<svg width="204" height="104" viewBox="0 0 204 104" fill="none" xmlns="http://www.w3.org/2000/svg">
<rect width="204" height="104" rx="16" fill="white"/>
<g clip-path="url(#clip0_395_592)">
<path fill-rule="evenodd" clip-rule="evenodd" d="M20.4447 26.7308L20.4434 26.6528V20.4063H26.7145V66.2218L26.7171 66.3646V72.5464H20.4434V66.2998L20.4447 66.2218V26.7308Z" fill="#3781C2"/>
<path fill-rule="evenodd" clip-rule="evenodd" d="M84.2103 53.5582C84.3713 63.0345 90.2698 70.6129 97.3858 70.486C104.501 70.359 110.137 62.5743 109.976 53.098C109.814 43.6204 103.915 36.042 96.799 36.1703C89.6843 36.2972 84.0479 44.0819 84.2103 53.5582ZM136.134 42.1007C136.298 42.4618 135.909 41.5611 135.909 41.5611L136.134 42.1007ZM140.408 81.3325C140.695 80.8431 141.096 80.0945 141.572 79.1595L140.408 81.3325ZM140.777 38.8313C140.852 39.0416 140.94 39.2611 141.039 39.4926L143.15 44.6626L140.777 38.8313ZM114.5 64.8571C118.376 68.3751 121.866 70.1937 126.329 70.1937C130.897 70.2281 134.958 67.9942 134.958 63.6945C134.958 60.1064 131.776 58.0074 126.092 55.6043C121.275 53.5199 117.691 52.0584 115.817 49.0416C116.046 50.3523 116.166 51.7066 116.166 53.0927C116.166 64.7301 107.725 74.1654 97.3113 74.1654C86.898 74.1654 78.4567 64.7301 78.4567 53.0927C78.4567 46.0764 81.5251 39.8616 86.2421 36.0314H73.483V66.222L73.4843 66.3423V72.5465H67.8173V66.5447C67.8213 66.4389 67.8226 66.3317 67.8226 66.222V36.0314H62.8262V32.2316H67.8957C68.5504 24.5659 73.2993 20.2305 79.8738 20.2305C84.137 20.2305 86.4776 20.6749 87.8294 21.3005V26.4969C87.8082 26.8844 87.8082 27.1212 87.8082 27.1212C87.7496 27.1145 87.6099 27.1119 87.6099 27.1119C85.5581 25.2193 83.5343 23.8107 78.8067 23.816C75.0411 23.816 72.5502 26.8752 73.4204 32.2316H94.6302C95.507 32.0927 96.4011 32.02 97.3113 32.02C104.865 32.02 111.382 36.985 114.391 44.156C114.363 43.7579 114.35 43.3426 114.35 42.9088C114.35 35.427 121.592 32.2448 129.115 32.2607C129.403 32.2594 129.685 32.2607 129.961 32.2673C132.609 32.225 136.382 33.0887 138.685 33.6944L143.15 44.6626L149.532 60.2267L150.281 62.7264L151.115 60.2267L159.185 40.2491C160.674 34.7485 166.568 32.3678 173.077 32.3811C176.313 32.3665 178.703 32.7567 181.569 33.7645V39.806C178.04 37.2416 175.513 35.751 171.509 35.751C167.99 35.751 163.76 37.309 163.76 42.4882C163.692 46.3806 166.027 47.0921 172.88 50.4925C178.512 52.9379 183.708 55.6373 183.739 61.8892C183.739 72.3125 173.469 74.1178 168.47 74.1336C164.007 74.1336 159.917 73.0319 157.642 71.1393V64.2579L158.008 64.5608C162.067 68.3513 165.655 70.3154 170.291 70.3154C174.86 70.3497 178.919 68.1146 178.919 63.8149C178.919 60.2267 175.738 58.1278 170.054 55.7246C164.621 53.3731 161.056 51.8151 159.599 47.9201C157.384 53.3228 147.078 78.4188 144.653 83.7832H139.096L141.611 79.088C143.004 76.345 145.03 72.0413 146.831 67.9241L136.134 42.1007C136.062 41.9433 135.887 41.5466 135.529 40.7332C134.708 38.863 133.944 37.1358 131.634 36.2655C130.397 35.8489 129.079 35.6306 127.548 35.6306C124.028 35.6306 119.527 37.1887 119.527 42.3679C119.459 46.2602 122.064 46.9718 128.918 50.3708C134.551 52.8176 139.747 55.517 139.777 61.7688C139.777 72.1921 129.506 73.9961 124.507 74.0133C120.54 74.0133 116.864 73.1417 114.5 71.6181V64.8571Z" fill="#3781C2"/>
<path fill-rule="evenodd" clip-rule="evenodd" d="M38.4176 32.6204L38.4868 37.1806L38.4828 37.4875L38.544 37.4861C38.6172 37.2957 38.7157 37.1343 38.8088 37.014C41.1121 34.5447 44.0155 32.0913 50.9159 32.0913C57.521 32.0913 61.7962 37.7031 61.9678 41.2357L61.9745 66.2219V66.3462V72.5465H56.3142V65.0964L56.3128 43.8253C56.3128 39.4211 52.4474 36.2363 47.7158 36.2363C43.7826 36.2363 38.7343 39.7755 38.5666 43.3584V66.2285L38.5693 66.3965V72.5518H32.9062V37.871L32.9076 32.6204H38.4176Z" fill="#3781C2"/>
</g>
<defs>
<clipPath id="clip0_395_592">
<rect width="166" height="66" fill="white" transform="translate(19 19)"/>
</clipPath>
</defs>
</svg>
