<svg width="204" height="104" viewBox="0 0 204 104" fill="none" xmlns="http://www.w3.org/2000/svg">
<rect width="204" height="104" rx="16" fill="white"/>
<g clip-path="url(#clip0_395_690)">
<path d="M53 70.4565H76.5929V77.6358H69.8246V94.8897H59.9935V77.6358H53V70.4565ZM88.5414 80.3285L83.5741 94.8897H74.1329L83.3925 70.4565H93.6459L103.129 94.8897H93.5714L88.5414 80.3285ZM100.873 70.4565H124.465V77.6358H117.699V94.8897H107.868V77.6358H100.873V70.4565ZM136.418 80.3285L131.449 94.8897H122.008L131.27 70.4565H141.521L151 94.8897H141.446L136.418 80.3285Z" fill="#3971A4"/>
<path fill-rule="evenodd" clip-rule="evenodd" d="M136.764 25.5774C135.883 23.8452 134.723 22.1849 133.28 20.628C130.037 17.1275 125.461 14.2147 120.045 12.2057C114.585 10.1811 108.358 9.10986 102.029 9.10986C95.7005 9.10986 89.4729 10.1811 84.0157 12.2057C78.5975 14.2149 74.0213 17.1277 70.7779 20.628C69.3356 22.1847 68.1717 23.8473 67.291 25.5805C74.3412 23.8756 86.4009 21.6247 97.5986 21.3867C98.6787 21.3635 99.4223 21.7094 99.912 22.33C100.508 23.0858 100.464 25.7797 100.449 26.9849L100.131 58.1355C100.761 58.1564 101.395 58.1699 102.029 58.1699C102.668 58.1699 103.306 58.1594 103.936 58.1385L103.618 26.9846C103.601 25.7797 103.555 23.0855 104.154 22.3298C104.645 21.7094 105.386 21.3635 106.466 21.3865C117.659 21.6226 129.716 23.874 136.764 25.5774Z" fill="#3971A4"/>
<path fill-rule="evenodd" clip-rule="evenodd" d="M138.27 29.6284C127.952 27.2957 121.061 26.8643 114.261 26.4871C108.335 26.1576 108.257 28.2739 108.849 32.3181C108.888 32.5649 108.935 32.876 108.992 33.2308C110.98 45.0047 113.455 55.1367 113.881 56.8564C128.329 53.5538 138.749 44.3971 138.749 33.6405C138.749 32.286 138.586 30.9441 138.27 29.6284ZM95.2159 32.3181C95.8082 28.2741 95.7322 26.1576 89.8063 26.4871C83.0048 26.8643 76.1122 27.2955 65.7897 29.6298C65.4744 30.9455 65.3086 32.2858 65.3086 33.6403C65.3086 38.2893 67.1999 42.7879 70.7788 46.6529C74.0221 50.1534 78.5984 53.0662 84.0166 55.0766C85.9776 55.8026 88.047 56.3977 90.1787 56.8736C90.5787 55.2626 93.1111 44.9197 95.1207 32.9352C95.1578 32.7056 95.1922 32.4936 95.2159 32.3181Z" fill="#3971A4"/>
</g>
<defs>
<clipPath id="clip0_395_690">
<rect width="98" height="90" fill="white" transform="translate(53 7)"/>
</clipPath>
</defs>
</svg>
