<svg width="204" height="104" viewBox="0 0 204 104" fill="none" xmlns="http://www.w3.org/2000/svg">
<rect width="204" height="104" rx="16" fill="white"/>
<g clip-path="url(#clip0_395_604)">
<path d="M144.146 43.1916C144.726 45.404 146.989 46.7315 149.225 46.1231C151.433 45.5423 152.757 43.2745 152.15 41.0344C151.571 38.8219 149.307 37.4944 147.072 38.1029C144.891 38.7113 143.566 40.9791 144.146 43.1916Z" fill="#2A4C87"/>
<path d="M138.544 47.6164C140.035 47.2015 140.946 45.6528 140.532 44.1594C140.118 42.666 138.572 41.7533 137.081 42.1682C135.591 42.583 134.68 44.1317 135.094 45.6252C135.481 47.1186 137.026 48.0036 138.544 47.6164Z" fill="#2A4C87"/>
<path d="M130.263 49.0547C131.367 48.7505 132.03 47.6166 131.726 46.5104C131.423 45.4041 130.291 44.7404 129.187 45.0446C128.083 45.3488 127.421 46.4827 127.724 47.5889C128.028 48.6952 129.159 49.3589 130.263 49.0547Z" fill="#2A4C87"/>
<path d="M123.833 50.0227C124.523 49.8292 124.937 49.1101 124.771 48.4187C124.605 47.7273 123.86 47.3125 123.17 47.4784C122.48 47.672 122.066 48.391 122.232 49.0824C122.397 49.7738 123.115 50.1887 123.833 50.0227Z" fill="#2E4E88"/>
<path d="M141.083 34.784C142.132 36.5817 144.423 37.2177 146.217 36.1668C148.011 35.1159 148.646 32.8204 147.597 31.0228C146.548 29.2252 144.257 28.5891 142.463 29.64C140.669 30.6909 140.034 32.9864 141.083 34.784Z" fill="#1F3D70"/>
<path d="M132.774 39.5687C133.492 40.8409 135.093 41.2557 136.362 40.5367C137.632 39.8176 138.046 38.2136 137.328 36.9414C136.611 35.6692 135.01 35.2544 133.74 35.9734C132.498 36.6925 132.057 38.2965 132.774 39.5687Z" fill="#1F3D70"/>
<path d="M126.868 40.813C125.958 41.3385 125.654 42.4724 126.178 43.385C126.703 44.2977 127.835 44.6019 128.745 44.0764C129.656 43.551 129.96 42.4171 129.435 41.5044C128.939 40.6194 127.779 40.3152 126.868 40.813Z" fill="#1F3D70"/>
<path d="M121.597 44.6296C121.017 44.9615 120.796 45.7082 121.127 46.289C121.459 46.8698 122.204 47.091 122.783 46.7592C123.363 46.4273 123.584 45.6806 123.253 45.0998C122.921 44.519 122.176 44.2978 121.597 44.6296Z" fill="#1F3D70"/>
<path d="M140.669 27.4002C141.994 26.0727 141.994 23.9432 140.669 22.6157C139.344 21.2882 137.219 21.2882 135.894 22.6157C134.569 23.9432 134.569 26.0727 135.894 27.4002C137.191 28.7277 139.344 28.7277 140.669 27.4002Z" fill="#194C88"/>
<path d="M132.417 30.8568C131.451 29.8889 129.905 29.8889 128.967 30.8568C128.001 31.8248 128.001 33.3735 128.967 34.3138C129.933 35.2818 131.478 35.2818 132.417 34.3138C133.383 33.3459 133.383 31.7971 132.417 30.8568Z" fill="#194C88"/>
<path d="M123.585 37.301C122.922 37.9648 122.922 39.0434 123.585 39.7071C124.247 40.3709 125.324 40.3709 125.986 39.7071C126.648 39.0434 126.648 37.9648 125.986 37.3287C125.324 36.6373 124.247 36.6373 123.585 37.301Z" fill="#194C88"/>
<path d="M119.415 43.8832C119.857 44.3257 120.574 44.3257 121.016 43.8832C121.458 43.4407 121.458 42.7216 121.016 42.2791C120.574 41.8366 119.857 41.8366 119.415 42.2791C118.974 42.7216 118.974 43.4407 119.415 43.8832Z" fill="#194C88"/>
<path d="M128.773 21.7027C130.291 22.5877 132.251 22.0622 133.134 20.5411C134.017 19.02 133.493 17.0565 131.975 16.1715C130.457 15.2865 128.497 15.8119 127.614 17.333C126.703 18.8541 127.227 20.8177 128.773 21.7027Z" fill="#3468A3"/>
<path d="M123.059 27.096C122.424 28.1746 122.81 29.5574 123.887 30.1935C124.963 30.8296 126.343 30.4424 126.978 29.3638C127.613 28.2852 127.226 26.9024 126.15 26.2663C125.046 25.6303 123.666 26.0174 123.059 27.096Z" fill="#3468A3"/>
<path d="M121.569 34.1759C120.851 33.7611 119.941 34.01 119.527 34.729C119.113 35.4481 119.361 36.3607 120.079 36.7756C120.796 37.1904 121.707 36.9415 122.121 36.2224C122.535 35.5034 122.287 34.5907 121.569 34.1759Z" fill="#3468A3"/>
<path d="M118.091 40.2045C117.595 39.928 116.96 40.0939 116.684 40.5917C116.408 41.0895 116.573 41.7256 117.07 42.0022C117.567 42.2787 118.202 42.1128 118.478 41.615C118.754 41.1172 118.588 40.4811 118.091 40.2045Z" fill="#3468A3"/>
<path d="M120.383 18.0248C121.984 18.4673 123.64 17.4993 124.054 15.8953C124.495 14.2912 123.529 12.6319 121.928 12.217C120.328 11.8022 118.672 12.7425 118.257 14.3465C117.816 15.9506 118.782 17.6099 120.383 18.0248Z" fill="#4C8DCB"/>
<path d="M117.844 27.4829C118.948 27.7871 120.079 27.1234 120.383 26.0172C120.686 24.9109 120.024 23.777 118.92 23.4728C117.816 23.1686 116.684 23.8323 116.381 24.9386C116.105 26.0448 116.74 27.1787 117.844 27.4829Z" fill="#4C8DCB"/>
<path d="M115.855 34.9501C116.601 35.1436 117.373 34.7012 117.567 33.9544C117.76 33.2077 117.318 32.4334 116.573 32.2398C115.828 32.0462 115.055 32.4887 114.862 33.2354C114.669 33.9544 115.11 34.7288 115.855 34.9501Z" fill="#4C8DCB"/>
<path d="M113.647 39.5961C113.509 40.0939 113.812 40.6194 114.309 40.7576C114.806 40.8959 115.33 40.5917 115.468 40.0939C115.606 39.5961 115.303 39.0706 114.806 38.9324C114.281 38.7941 113.757 39.0983 113.647 39.5961Z" fill="#4C8DCB"/>
<path d="M111.274 16.6418C112.82 16.6418 114.09 15.3696 114.09 13.8209C114.09 12.2722 112.82 11 111.274 11C109.729 11 108.459 12.2722 108.459 13.8209C108.459 15.3973 109.729 16.6418 111.274 16.6418Z" fill="#3498B3"/>
<path d="M111.273 22.6709C110.225 22.6709 109.396 23.5006 109.396 24.5515C109.396 25.6024 110.225 26.4321 111.273 26.4321C112.322 26.4321 113.15 25.6024 113.15 24.5515C113.15 23.5282 112.322 22.6709 111.273 22.6709Z" fill="#3498B3"/>
<path d="M112.599 32.931C112.599 32.2119 112.019 31.6035 111.274 31.6035C110.529 31.6035 109.949 32.1843 109.949 32.931C109.949 33.6777 110.529 34.2585 111.274 34.2585C112.019 34.2585 112.599 33.6501 112.599 32.931Z" fill="#3498B3"/>
<path d="M111.274 38.5732C110.804 38.5732 110.418 38.9604 110.418 39.4306C110.418 39.9007 110.804 40.2879 111.274 40.2879C111.743 40.2879 112.129 39.9007 112.129 39.4306C112.129 38.9604 111.743 38.5732 111.274 38.5732Z" fill="#3498B3"/>
<path d="M102.082 17.6926C103.49 17.3054 104.318 15.8673 103.931 14.4569C103.545 13.0464 102.11 12.2167 100.702 12.6039C99.2944 12.9911 98.4663 14.4292 98.8528 15.8397C99.2392 17.2225 100.702 18.0522 102.082 17.6926Z" fill="#0AA496"/>
<path d="M102.552 25.9343C102.8 26.8469 103.711 27.3724 104.622 27.1235C105.533 26.8746 106.057 25.9619 105.809 25.0493C105.56 24.1366 104.65 23.6112 103.739 23.8601C102.856 24.109 102.303 25.0493 102.552 25.9343Z" fill="#0AA496"/>
<path d="M105.175 33.9266C105.341 34.5904 106.031 34.9776 106.665 34.784C107.328 34.618 107.714 33.9266 107.521 33.2905C107.355 32.6268 106.665 32.2396 106.031 32.4332C105.368 32.5991 105.009 33.2629 105.175 33.9266Z" fill="#0AA496"/>
<path d="M107.3 40.0665C107.41 40.4813 107.824 40.7026 108.211 40.5919C108.625 40.4813 108.845 40.0665 108.735 39.6793C108.625 39.2644 108.211 39.0432 107.824 39.1538C107.438 39.2644 107.189 39.6516 107.3 40.0665Z" fill="#0AA496"/>
<path d="M93.4429 21.0943C94.6022 20.4306 95.0162 18.9095 94.3538 17.748C93.6914 16.5864 92.1733 16.1716 91.0141 16.8353C89.8548 17.4991 89.4408 19.0201 90.1032 20.1817C90.7933 21.3709 92.2837 21.7581 93.4429 21.0943Z" fill="#00AA75"/>
<path d="M98.3288 29.5573C99.0464 29.1425 99.2948 28.2298 98.8808 27.5108C98.4668 26.7917 97.556 26.5428 96.8384 26.9576C96.1207 27.3725 95.8723 28.2851 96.2863 29.0042C96.6728 29.7232 97.6112 29.9721 98.3288 29.5573Z" fill="#00AA75"/>
<path d="M102.303 36.4989C102.855 36.1947 103.021 35.5033 102.717 34.9502C102.414 34.3971 101.724 34.2311 101.172 34.5353C100.62 34.8396 100.454 35.531 100.758 36.0841C101.089 36.6095 101.779 36.8031 102.303 36.4989Z" fill="#00AA75"/>
<path d="M105.56 40.8133C105.367 40.5091 104.981 40.3984 104.65 40.5644C104.346 40.758 104.236 41.1452 104.401 41.477C104.594 41.7812 104.981 41.8919 105.284 41.7259C105.643 41.5323 105.754 41.1175 105.56 40.8133Z" fill="#00AA75"/>
<path d="M85.909 26.6531C86.7923 25.7681 86.7923 24.33 85.909 23.445C85.0258 22.56 83.5906 22.56 82.7073 23.445C81.8241 24.33 81.8241 25.7681 82.7073 26.6531C83.6182 27.5381 85.0534 27.5381 85.909 26.6531Z" fill="#4FBA6A"/>
<path d="M92.8363 31.7144C92.3119 31.1889 91.4839 31.1889 90.9871 31.7144C90.4626 32.2399 90.4626 33.0696 90.9871 33.5674C91.5115 34.0928 92.3395 34.0928 92.8363 33.5674C93.3331 33.0419 93.3331 32.2122 92.8363 31.7144Z" fill="#4FBA6A"/>
<path d="M98.5507 37.8263C98.1367 37.4114 97.5019 37.4114 97.0879 37.8263C96.6738 38.2411 96.6738 38.8772 97.0879 39.292C97.5019 39.7069 98.1367 39.7069 98.5507 39.292C98.9371 38.8772 98.9371 38.2411 98.5507 37.8263Z" fill="#4FBA6A"/>
<path d="M102.8 42.7489C102.579 42.5277 102.221 42.5554 102.027 42.7766C101.807 42.9978 101.834 43.3574 102.055 43.551C102.276 43.7446 102.607 43.7446 102.828 43.551C103.021 43.3297 103.021 42.9702 102.8 42.7489Z" fill="#4FBA6A"/>
<path d="M77.1867 34.7013C78.1803 35.2821 79.4499 34.9226 80.002 33.9546C80.5816 32.959 80.2228 31.6868 79.2567 31.1337C78.2631 30.5529 76.9935 30.9125 76.4415 31.8804C75.8618 32.8484 76.1931 34.1206 77.1867 34.7013Z" fill="#7EC45F"/>
<path d="M88.1177 37.356C87.5656 37.0518 86.9032 37.2454 86.572 37.7708C86.2684 38.324 86.4616 38.9877 86.986 39.3196C87.538 39.6238 88.2005 39.4578 88.5317 38.9047C88.8353 38.3516 88.6421 37.6602 88.1177 37.356Z" fill="#7EC45F"/>
<path d="M95.2663 41.6981C94.8247 41.4492 94.2451 41.5875 93.9967 42.0576C93.7483 42.5001 93.8863 43.0809 94.3555 43.3298C94.7971 43.5787 95.3767 43.4404 95.6251 42.9979C95.8735 42.5554 95.7079 41.9746 95.2663 41.6981Z" fill="#7EC45F"/>
<path d="M149.474 47.478C146.99 47.478 144.947 49.4969 144.947 52.0136C144.947 54.5027 146.962 56.5492 149.474 56.5492C151.958 56.5492 153.973 54.5303 154 52.0413C153.973 49.5246 151.958 47.478 149.474 47.478Z" fill="#4C609B"/>
<path d="M141.994 52.0141C141.994 50.2164 140.559 48.7783 138.764 48.7783C136.97 48.7783 135.535 50.2164 135.535 52.0141C135.535 53.8117 136.97 55.2498 138.764 55.2498C140.531 55.2498 141.994 53.8117 141.994 52.0141Z" fill="#4C609B"/>
<path d="M130.401 49.8013C129.187 49.8013 128.193 50.7969 128.193 52.0137C128.193 53.2306 129.187 54.2262 130.401 54.2262C131.616 54.2262 132.609 53.2306 132.609 52.0137C132.609 50.7969 131.616 49.8013 130.401 49.8013Z" fill="#4C609B"/>
<path d="M125.351 52.0138C125.351 51.2118 124.716 50.5757 123.916 50.5757C123.115 50.5757 122.48 51.2118 122.48 52.0138C122.48 52.8158 123.115 53.4519 123.916 53.4519C124.716 53.4519 125.351 52.8158 125.351 52.0138Z" fill="#54669F"/>
<path d="M149.224 57.8768C147.016 57.2684 144.753 58.5958 144.146 60.8083C143.538 63.0208 144.863 65.2886 147.071 65.897C149.279 66.5055 151.543 65.178 152.15 62.9655V62.9378C152.729 60.753 151.405 58.4852 149.224 57.8768Z" fill="#746FA7"/>
<path d="M137.081 61.8317C138.572 62.2466 140.118 61.3339 140.532 59.8405C140.946 58.3471 140.035 56.7983 138.544 56.3835C137.054 55.9686 135.508 56.8813 135.094 58.3747C134.68 59.8681 135.563 61.4169 137.081 61.8317Z" fill="#746FA7"/>
<path d="M129.187 58.9556C130.291 59.2598 131.423 58.5961 131.727 57.4898C132.03 56.3836 131.368 55.2497 130.264 54.9455C129.16 54.6413 128.028 55.305 127.725 56.4112C127.449 57.5175 128.083 58.6514 129.187 58.9556Z" fill="#746FA7"/>
<path d="M123.142 56.5494C123.832 56.743 124.55 56.3281 124.743 55.6091C124.936 54.9177 124.522 54.1986 123.805 54.005C123.114 53.8114 122.397 54.2263 122.204 54.9453C122.01 55.6091 122.424 56.3558 123.142 56.5494Z" fill="#746FA7"/>
<path d="M146.217 67.8329C144.423 66.7819 142.132 67.418 141.083 69.2157C140.034 71.0133 140.669 73.3088 142.463 74.3597C144.257 75.4106 146.548 74.7745 147.597 72.9769C148.618 71.1793 148.011 68.8838 146.217 67.8329Z" fill="#99558E"/>
<path d="M137.356 67.0585C138.074 65.7863 137.66 64.1822 136.39 63.4632C135.12 62.7441 133.519 63.159 132.802 64.4311C132.084 65.7033 132.498 67.3074 133.768 68.0264C135.01 68.7455 136.611 68.303 137.356 67.0585Z" fill="#99558E"/>
<path d="M129.435 62.4956C129.96 61.583 129.656 60.4491 128.745 59.9236C127.835 59.3981 126.703 59.7024 126.178 60.615C125.654 61.5277 125.958 62.6616 126.868 63.187C127.779 63.6848 128.911 63.3806 129.435 62.4956Z" fill="#99558E"/>
<path d="M123.28 58.9001C123.611 58.3194 123.418 57.5727 122.838 57.2131C122.258 56.8813 121.513 57.0748 121.154 57.6556C120.795 58.2364 121.016 58.9831 121.596 59.3426H121.623C122.203 59.6745 122.948 59.4809 123.28 58.9001Z" fill="#99558E"/>
<path d="M135.867 76.5999C134.542 77.9274 134.542 80.0569 135.867 81.3844C137.192 82.7118 139.317 82.7118 140.642 81.3844C141.966 80.0569 141.966 77.9274 140.642 76.5999C139.344 75.3 137.192 75.3 135.867 76.5999Z" fill="#AF3379"/>
<path d="M132.417 73.1429C133.383 72.175 133.383 70.6262 132.417 69.6859C131.451 68.718 129.905 68.718 128.967 69.6859C128.001 70.6539 128.001 72.2026 128.967 73.1429C129.905 74.1109 131.451 74.1109 132.417 73.1429Z" fill="#AF3379"/>
<path d="M125.986 66.6993C126.648 66.0355 126.648 64.957 125.986 64.2932C125.324 63.6295 124.247 63.6295 123.585 64.2932C122.922 64.957 122.922 66.0355 123.585 66.6716C124.247 67.363 125.324 67.363 125.986 66.6993Z" fill="#AF3379"/>
<path d="M119.415 61.6932C119.857 62.1357 120.574 62.1357 121.016 61.6932C121.458 61.2507 121.458 60.5317 121.016 60.0892C120.574 59.6467 119.857 59.6467 119.415 60.0892C118.974 60.5317 118.974 61.2507 119.415 61.6932Z" fill="#AF3379"/>
<path d="M128.772 82.297C127.254 83.1819 126.73 85.1455 127.613 86.6666C128.496 88.1877 130.456 88.7131 131.974 87.8281C133.492 86.9432 134.016 84.9796 133.133 83.4585C132.25 81.9374 130.29 81.412 128.772 82.297Z" fill="#BE266A"/>
<path d="M126.951 74.6639C126.316 73.5853 124.963 73.1981 123.859 73.8342C122.783 74.4703 122.397 75.8254 123.031 76.9317C123.666 78.0103 125.019 78.3975 126.123 77.7614C127.199 77.1253 127.585 75.7425 126.951 74.6639Z" fill="#BE266A"/>
<path d="M121.569 69.8244C122.287 69.4096 122.535 68.4969 122.121 67.7779C121.707 67.0588 120.796 66.8099 120.079 67.2247C119.361 67.6396 119.113 68.5522 119.527 69.2713C119.941 69.9903 120.851 70.2392 121.569 69.8244Z" fill="#BE266A"/>
<path d="M117.07 61.9975C116.573 62.274 116.408 62.9101 116.684 63.4079C116.96 63.9058 117.595 64.0717 118.091 63.7951C118.588 63.5186 118.754 62.8825 118.478 62.3847C118.202 61.8869 117.567 61.7209 117.07 61.9975Z" fill="#BE266A"/>
<path d="M120.383 85.9755C118.782 86.418 117.816 88.0497 118.257 89.6537C118.699 91.2578 120.328 92.2257 121.928 91.7832C123.529 91.3407 124.495 89.709 124.054 88.105C123.64 86.5009 121.984 85.533 120.383 85.9755Z" fill="#D4525C"/>
<path d="M118.92 80.4995C120.024 80.1953 120.686 79.0614 120.383 77.9552C120.079 76.8489 118.948 76.1852 117.844 76.4894C116.74 76.7936 116.105 77.9275 116.381 79.0338C116.684 80.1677 117.816 80.8038 118.92 80.4995Z" fill="#D4525C"/>
<path d="M117.567 70.0454C117.373 69.2987 116.601 68.8562 115.855 69.0498C115.11 69.2434 114.669 70.0178 114.862 70.7645C115.055 71.5112 115.828 71.9537 116.573 71.7601C117.346 71.5942 117.787 70.8198 117.567 70.0454Z" fill="#D4525C"/>
<path d="M115.441 63.9057C115.303 63.4079 114.779 63.1036 114.282 63.2419C113.785 63.3802 113.481 63.9057 113.619 64.4035C113.757 64.9013 114.254 65.2055 114.779 65.0672C115.275 64.9289 115.579 64.4035 115.441 63.9057Z" fill="#D4525C"/>
<path d="M111.274 87.3584C109.729 87.3584 108.459 88.6306 108.459 90.1793C108.459 91.728 109.729 93.0002 111.274 93.0002C112.82 93.0002 114.09 91.7557 114.09 90.1793C114.09 88.6306 112.848 87.3584 111.274 87.3584Z" fill="#E0654F"/>
<path d="M109.396 79.4485C109.396 80.4994 110.225 81.3291 111.273 81.3291C112.322 81.3291 113.15 80.4994 113.15 79.4485C113.15 78.3976 112.322 77.5679 111.273 77.5679C110.252 77.5679 109.396 78.3976 109.396 79.4485Z" fill="#E0654F"/>
<path d="M111.274 72.3688C111.992 72.3688 112.599 71.7881 112.599 71.0414C112.599 70.2946 112.019 69.7139 111.274 69.7139C110.556 69.7139 109.949 70.2946 109.949 71.0414C109.977 71.7881 110.556 72.3688 111.274 72.3688Z" fill="#E0654F"/>
<path d="M111.274 63.7124C110.804 63.7124 110.418 64.0996 110.418 64.5697C110.418 65.0399 110.804 65.4271 111.274 65.4271C111.743 65.4271 112.129 65.0399 112.129 64.5697C112.129 64.0996 111.743 63.7124 111.274 63.7124Z" fill="#E0654F"/>
<path d="M102.082 86.3071C100.674 85.9199 99.2392 86.7773 98.8528 88.1601C98.4664 89.5705 99.322 91.0086 100.702 91.3958C102.11 91.783 103.545 90.9257 103.931 89.5429C104.318 88.1324 103.49 86.6943 102.082 86.3071Z" fill="#F57F2A"/>
<path d="M104.622 76.8489C103.711 76.6 102.8 77.1531 102.552 78.0381C102.303 78.9507 102.856 79.8634 103.739 80.1123C104.65 80.3612 105.56 79.8081 105.809 78.9231C106.057 78.0381 105.533 77.0978 104.622 76.8489Z" fill="#F57F2A"/>
<path d="M106.666 69.2157C106.003 69.0497 105.341 69.4369 105.175 70.073C105.009 70.7368 105.396 71.4005 106.031 71.5664C106.693 71.7324 107.356 71.3452 107.521 70.7091C107.714 70.073 107.328 69.4093 106.666 69.2157Z" fill="#F57F2A"/>
<path d="M108.763 64.3206C108.873 63.9058 108.625 63.4909 108.239 63.408C107.852 63.325 107.411 63.5462 107.328 63.9334C107.245 64.3206 107.466 64.7631 107.852 64.8461C108.239 64.9567 108.653 64.7355 108.763 64.3206Z" fill="#F57F2A"/>
<path d="M93.444 82.9057C92.2848 82.242 90.7943 82.6292 90.1043 83.7907C89.4419 84.9523 89.8283 86.4457 90.9875 87.1371C92.1468 87.8008 93.6372 87.4137 94.3272 86.2521C95.0173 85.0906 94.6032 83.5971 93.444 82.9057Z" fill="#F89828"/>
<path d="M98.3288 74.443C97.6112 74.0282 96.7004 74.2771 96.2863 74.9961C95.8723 75.7152 96.1207 76.6278 96.8384 77.0427C97.556 77.4575 98.4668 77.2086 98.8808 76.4895C99.2948 75.7705 99.0464 74.8578 98.3288 74.443Z" fill="#F89828"/>
<path d="M101.199 69.4647C101.751 69.7689 102.441 69.603 102.745 69.0499C103.048 68.4968 102.883 67.8054 102.331 67.5012C101.779 67.1969 101.089 67.3629 100.785 67.916C100.481 68.4691 100.647 69.1605 101.199 69.4647Z" fill="#F89828"/>
<path d="M105.34 62.274C105.036 62.0804 104.622 62.191 104.456 62.5229C104.263 62.8271 104.374 63.2419 104.705 63.4079C105.008 63.6015 105.422 63.4908 105.588 63.159C105.754 62.8824 105.643 62.4676 105.34 62.274Z" fill="#F89828"/>
<path d="M82.7347 77.3468C81.8515 78.2318 81.8515 79.67 82.7347 80.5549C83.6179 81.4399 85.0532 81.4399 85.9364 80.5549C86.8196 79.67 86.8196 78.2318 85.9364 77.3468C85.0532 76.4619 83.6179 76.4619 82.7347 77.3468Z" fill="#FEC127"/>
<path d="M90.9871 70.4327C90.4626 70.9581 90.4626 71.7878 90.9871 72.2856C91.5115 72.8111 92.3395 72.8111 92.8363 72.2856C93.3331 71.7602 93.3607 70.9305 92.8363 70.4327C92.3395 69.9072 91.4839 69.9072 90.9871 70.4327Z" fill="#FEC127"/>
<path d="M97.0879 64.7081C96.6738 65.1229 96.6738 65.759 97.0879 66.1739C97.5019 66.5887 98.1367 66.5887 98.5507 66.1739C98.9647 65.759 98.9647 65.1229 98.5507 64.7081C98.1367 64.2933 97.4743 64.2933 97.0879 64.7081Z" fill="#FEC127"/>
<path d="M102.8 60.4491C102.579 60.2279 102.221 60.2555 102.027 60.4768C101.807 60.698 101.834 61.0576 102.055 61.2512C102.276 61.4448 102.607 61.4448 102.828 61.2512C103.021 61.0299 103.021 60.6704 102.8 60.4491Z" fill="#FEC127"/>
<path d="M77.2414 69.2433C76.2477 69.8241 75.9165 71.0686 76.4961 72.0642C77.0758 73.0598 78.3178 73.3917 79.3114 72.8109C80.3051 72.2301 80.6363 70.9856 80.0567 69.99C79.5046 68.9944 78.235 68.6625 77.2414 69.2433Z" fill="#FED627"/>
<path d="M86.986 64.6802C86.4616 64.9844 86.2684 65.6758 86.572 66.2289C86.8756 66.7544 87.5656 66.948 88.1177 66.6438C88.6421 66.3396 88.8353 65.6482 88.5317 65.0951C88.2281 64.5696 87.538 64.376 86.986 64.6802Z" fill="#FED627"/>
<path d="M94.3275 60.6704C93.8859 60.9193 93.7203 61.5 93.9963 61.9425C94.2447 62.385 94.8243 62.551 95.2659 62.2744C95.7075 62.0255 95.8731 61.4447 95.5971 61.0022C95.3487 60.5597 94.7691 60.3938 94.3275 60.6704Z" fill="#FED627"/>
<path d="M73.0467 45.4318H76.3588V58.2089H73.0467V45.4318ZM75.0616 39.7347C74.0403 39.4581 72.9915 40.0666 72.7155 41.0898C72.4395 42.1131 73.0467 43.164 74.0679 43.4406C75.0892 43.7172 76.138 43.1087 76.414 42.0855C76.69 41.0622 76.0828 39.9836 75.0616 39.7347ZM86.5987 58.4855C85.7983 58.4855 84.9979 58.3472 84.2527 58.0153C83.5902 57.7111 83.0106 57.2409 82.569 56.6602V64.5974H79.3397V45.4318H82.5414V47.2018C82.9554 46.5657 83.535 46.0679 84.2251 45.7084C84.9427 45.3489 85.7431 45.1553 86.5711 45.1553C87.3715 45.1553 88.1444 45.3212 88.8896 45.6254C89.6348 45.9296 90.2972 46.3998 90.8493 46.9529C91.4289 47.5613 91.8981 48.2804 92.2017 49.0548C92.5605 49.9398 92.7261 50.8524 92.6985 51.7927C92.7261 52.733 92.5329 53.6733 92.1741 54.5583C91.8429 55.3327 91.3737 56.0517 90.7941 56.6602C89.7176 57.8217 88.172 58.4855 86.5987 58.4855ZM85.9363 55.388C86.4055 55.388 86.8747 55.305 87.3163 55.1114C87.7304 54.9178 88.1168 54.6689 88.448 54.3371C88.7792 54.0052 89.0276 53.618 89.1932 53.2032C89.552 52.2905 89.552 51.2949 89.1932 50.3823C89.0276 49.9674 88.7516 49.5802 88.448 49.2484C88.1168 48.9165 87.7304 48.6676 87.3163 48.474C86.8747 48.2804 86.4055 48.1974 85.9363 48.1974C84.9979 48.1974 84.087 48.5846 83.397 49.2484C83.0658 49.5802 82.8174 49.9674 82.6518 50.3823C82.293 51.2949 82.293 52.2905 82.6518 53.1755C82.8174 53.5904 83.0658 53.9775 83.397 54.3094C84.087 55.0285 84.9979 55.4156 85.9363 55.388ZM95.0722 45.4318H98.2739V47.3954C98.5499 46.704 99.0191 46.1232 99.6539 45.7361C100.316 45.3765 101.034 45.1829 101.807 45.2106C102.221 45.2106 102.607 45.2659 102.994 45.3489C103.325 45.4318 103.656 45.5425 103.96 45.7084L102.773 48.9165C102.552 48.7782 102.304 48.6676 102.055 48.5846C101.724 48.5016 101.393 48.4463 101.062 48.4463C100.316 48.4187 99.5987 48.6676 99.0467 49.1377C98.5499 49.6079 98.3015 50.3823 98.3015 51.4332V58.1812H95.0722V45.4318ZM111.163 58.4855C110.253 58.4855 109.342 58.3195 108.486 57.96C107.686 57.6281 106.968 57.1303 106.333 56.5219C105.091 55.2774 104.401 53.5904 104.401 51.8204C104.401 50.9354 104.567 50.0504 104.898 49.2207C105.229 48.4187 105.699 47.6996 106.306 47.0912C108.983 44.4915 113.234 44.4915 115.911 47.0912C117.153 48.3357 117.87 50.0227 117.87 51.7927C117.87 52.6777 117.705 53.5627 117.346 54.3647C117.015 55.1667 116.518 55.8858 115.938 56.4942C115.331 57.1027 114.614 57.6005 113.786 57.9323C112.985 58.2919 112.074 58.4855 111.163 58.4855ZM111.191 55.388C111.66 55.388 112.13 55.305 112.571 55.1114C112.985 54.9178 113.344 54.6689 113.675 54.3647C114.006 54.0329 114.255 53.6457 114.42 53.2308C114.779 52.3182 114.779 51.3226 114.42 50.4376C114.255 50.0227 114.006 49.6355 113.675 49.3037C113.344 48.9718 112.985 48.7229 112.571 48.557C111.688 48.1698 110.694 48.1698 109.839 48.557C109.425 48.7506 109.066 48.9995 108.735 49.3037C108.403 49.6355 108.155 50.0227 107.989 50.4376C107.631 51.3502 107.631 52.3458 107.989 53.2308C108.155 53.6457 108.403 54.0329 108.735 54.3647C109.066 54.6966 109.425 54.9455 109.839 55.1114C110.253 55.2774 110.722 55.388 111.191 55.388ZM50 45.4318H53.3121L55.879 53.5904L58.9151 45.4318H61.7856L64.7665 53.5904L67.4437 45.4318H70.7558L66.4225 58.2089H63.3588L60.3227 49.8845L57.259 58.2089H54.1401L50 45.4318Z" fill="#351A55"/>
</g>
<defs>
<clipPath id="clip0_395_604">
<rect width="104" height="82" fill="white" transform="translate(50 11)"/>
</clipPath>
</defs>
</svg>
