<svg width="204" height="104" viewBox="0 0 204 104" fill="none" xmlns="http://www.w3.org/2000/svg">
<rect width="204" height="104" rx="16" fill="white"/>
<path d="M93.0518 73.049C91.7735 73.049 90.4785 72.7859 89.2334 72.2432L62.6709 60.5183C57.9229 58.4299 55.7813 52.8881 57.8897 48.185L69.7266 21.8739C71.835 17.1707 77.4297 15.0494 82.1778 17.1379L108.74 28.8627C113.488 30.9512 115.63 36.493 113.522 41.1961L101.685 67.5072C100.107 70.9934 96.6543 73.049 93.0518 73.049ZM91.4414 67.3099C93.4502 68.1979 95.8076 67.2934 96.7041 65.3201L108.541 39.009C109.438 37.0192 108.524 34.6841 106.532 33.7961L79.9532 22.0712C77.9444 21.1832 75.5869 22.0876 74.6905 24.061L62.8535 50.3721C61.9571 52.3619 62.8701 54.697 64.8623 55.585L91.4414 67.3099Z" fill="#089949"/>
<path d="M176.375 73.0653H147.289C142.093 73.0653 137.859 68.872 137.859 63.7248V34.9142C137.859 29.7671 142.093 25.5737 147.289 25.5737H176.375C181.571 25.5737 185.805 29.7671 185.805 34.9142V63.7248C185.805 68.872 181.571 73.0653 176.375 73.0653ZM147.289 30.9675C145.098 30.9675 143.305 32.7435 143.305 34.9142V63.7248C143.305 65.8955 145.098 67.6715 147.289 67.6715H176.375C178.566 67.6715 180.359 65.8955 180.359 63.7248V34.9142C180.359 32.7435 178.566 30.9675 176.375 30.9675H147.289Z" fill="#F9B21D"/>
<path d="M67.4514 40.1931L63.5334 48.8758C63.4836 48.9744 63.4338 49.0567 63.384 49.1389L64.9113 58.4793C65.26 60.6336 63.7824 62.6562 61.6242 63.0016L32.9035 67.606C31.8576 67.7704 30.7951 67.5238 29.9318 66.9153C29.0686 66.3069 28.5041 65.386 28.3381 64.35L23.6896 35.9011C23.5236 34.8651 23.7727 33.8127 24.3869 32.9576C25.0012 32.1024 25.9309 31.5433 26.9768 31.3789L55.6975 26.7744C55.9133 26.7416 56.1291 26.7251 56.3283 26.7251C58.2375 26.7251 59.9475 28.1064 60.2629 30.0469L61.8068 39.4531L65.8576 30.458L65.6418 29.1918C64.8117 24.1104 59.9641 20.6407 54.8342 21.4629L26.1135 26.0673C23.6398 26.4456 21.4484 27.7776 19.9875 29.8002C18.51 31.8229 17.9289 34.2896 18.3273 36.7562L22.9758 65.2051C23.3742 67.6718 24.7189 69.826 26.7609 71.2896C28.3713 72.4571 30.2805 73.0491 32.2561 73.0491C32.7541 73.0491 33.2687 73.0162 33.7834 72.934L62.5041 68.3296C67.634 67.5073 71.1369 62.7056 70.3068 57.6242L67.4514 40.1931Z" fill="#E42527"/>
<path d="M101.901 53.7761L106.118 44.4192L104.923 35.7201C104.773 34.6841 105.056 33.6481 105.703 32.8095C106.351 31.9708 107.28 31.4281 108.343 31.2966L137.163 27.4157C137.346 27.3992 137.528 27.3828 137.711 27.3828C138.574 27.3828 139.404 27.6624 140.118 28.1886C140.251 28.2872 140.367 28.4024 140.483 28.501C141.762 27.169 143.438 26.2152 145.314 25.8041C144.783 25.0806 144.152 24.4392 143.405 23.8801C141.396 22.3672 138.923 21.7259 136.433 22.0548L107.579 25.9357C105.089 26.2646 102.864 27.5472 101.353 29.537C99.8261 31.5268 99.1787 33.977 99.5107 36.4437L101.901 53.7761Z" fill="#226DB4"/>
<path d="M150.942 58.5944L147.157 30.9678C145.032 31.0336 143.322 32.7767 143.322 34.898V43.0051L145.563 59.318C145.713 60.354 145.431 61.39 144.783 62.2287C144.136 63.0673 143.206 63.61 142.144 63.7415L113.323 67.6224C112.277 67.7704 111.231 67.4909 110.385 66.8495C109.538 66.2082 108.99 65.2873 108.857 64.2349L107.529 54.5491L103.312 63.906L103.462 64.9584C103.794 67.4251 105.089 69.6287 107.098 71.1251C108.758 72.3749 110.733 73.0327 112.792 73.0327C113.224 73.0327 113.655 72.9998 114.087 72.9504L142.874 69.1024C145.364 68.7735 147.589 67.4909 149.1 65.5011C150.627 63.5113 151.274 61.0611 150.942 58.5944Z" fill="#226DB4"/>
<path d="M125.806 83.3433C125.806 80.8766 127.632 79.1006 130.123 79.1006C132.696 79.1006 134.439 80.8437 134.439 83.3597C134.439 85.9086 132.663 87.6681 130.089 87.6681C127.5 87.6681 125.806 85.9086 125.806 83.3433ZM132.447 83.3761C132.447 81.8797 131.716 80.597 130.073 80.597C128.413 80.597 127.782 81.929 127.782 83.4419C127.782 84.8726 128.562 86.1881 130.156 86.1881C131.799 86.1717 132.447 84.7739 132.447 83.3761ZM107.395 79.2321H108.624C108.806 79.2321 108.956 79.3801 108.956 79.561V82.6197H112.442V79.561C112.442 79.3801 112.591 79.2321 112.774 79.2321H114.002C114.185 79.2321 114.334 79.3801 114.334 79.561V87.2077C114.334 87.3886 114.185 87.5366 114.002 87.5366H112.791C112.608 87.5366 112.459 87.3886 112.459 87.2077V84.1161H108.972V87.2077C108.972 87.3886 108.823 87.5366 108.64 87.5366H107.412C107.229 87.5366 107.08 87.3886 107.08 87.2077V79.561C107.063 79.3801 107.212 79.2321 107.395 79.2321ZM86.9585 83.3433C86.9585 80.8766 88.7847 79.1006 91.2749 79.1006C93.8482 79.1006 95.5913 80.8437 95.5913 83.3597C95.5913 85.9086 93.815 87.6681 91.2417 87.6681C88.6519 87.6681 86.9585 85.9086 86.9585 83.3433ZM93.6157 83.3761C93.6157 81.8797 92.8853 80.597 91.2417 80.597C89.5816 80.597 88.9507 81.929 88.9507 83.4419C88.9507 84.8726 89.731 86.1881 91.3247 86.1881C92.9683 86.1717 93.6157 84.7739 93.6157 83.3761ZM69.6265 86.7308L73.7437 80.7121H70.357C70.1743 80.7121 70.0249 80.5641 70.0249 80.3833V79.5775C70.0249 79.3966 70.1743 79.2486 70.357 79.2486H75.9185C76.1011 79.2486 76.2505 79.3966 76.2505 79.5775V79.8899C76.2505 79.9557 76.2339 80.0215 76.2007 80.0708L72.1665 86.0895H75.7857C75.9683 86.0895 76.1177 86.2375 76.1177 86.4184V87.2241C76.1177 87.405 75.9683 87.553 75.7857 87.553H69.9087C69.7261 87.553 69.5767 87.405 69.5767 87.2241V86.9281C69.5601 86.8459 69.5933 86.7801 69.6265 86.7308Z" fill="black"/>
</svg>
