<?xml version="1.0" encoding="UTF-8" standalone="no"?>
<svg
   role="img"
   viewBox="27 45 187.92 97.919998"
   preserveAspectRatio="xMidYMid"
   version="1.1"
   id="svg13"
   width="187.92"
   height="97.919998"
   xmlns="http://www.w3.org/2000/svg"
   xmlns:svg="http://www.w3.org/2000/svg">
  <defs
     id="defs13" />
  <path
     fill="#049fd9"
     fill-rule="evenodd"
     d="m 83.17,110 -1.09,0.42 -0.83,0.91 -0.25,0.84 v 27.58 l 0.42,1.08 1.33,1 4.92,0.09 1.08,-0.59 1,-2 v -0.75 l -0.83,-1.83 0.16,-1.25 0.67,-1.17 v -0.75 l -0.67,-1.16 -0.16,-1.25 1,-2.42 -0.17,-1.25 -0.67,-1.17 0.34,-1.58 -0.34,-2.17 0.84,-1.83 v -6.58 l -1.25,-2.84 -1.09,-1.08 -0.83,-0.25 z m 35.25,0.17 -3.67,-0.25 -2,-0.92 -1,0.08 -2,0.92 -3,0.08 -2.67,1.34 -2.83,2.91 -0.33,1.84 -0.92,2 v 3.58 l 1.25,2.83 1.83,1.92 1.5,0.67 1.75,1.5 2.09,0.41 3.91,2 0.67,1.17 -0.42,1.58 -1.41,1.09 -9,0.08 -1.09,0.42 -1,1.33 -0.08,3 0.42,1.08 0.91,0.84 1.84,0.33 2,0.92 h 5.58 l 2,-0.92 3.67,-0.25 1.91,-1.58 1.5,-0.67 0.84,-0.92 1.25,-2.83 v -6.58 l -1.25,-2.84 -0.84,-0.91 -1.5,-0.67 -1.91,-1.58 -2.67,-0.25 -2.42,-1.17 -1,-0.92 -0.41,-1.08 0.08,-1.92 0.83,-0.83 6.92,-0.08 0.83,-0.25 0.92,-0.84 0.42,-1.08 v -2.58 l -0.42,-1.09 z"
     id="path1" />
  <path
     fill="#049fd9"
     fill-rule="evenodd"
     d="m 174.5,110.17 -2.17,1.08 -1.5,1.33 -1.5,0.67 -3.08,3.08 -2.08,4.17 -0.17,4.25 -1,2.42 0.08,2 0.75,1.33 0.34,1.92 1.08,2.16 1.5,1.75 0.67,1.5 0.91,0.84 3.25,1.5 1.92,1.58 3.67,0.25 2,0.92 h 3.58 l 2,-0.92 2.67,-0.25 2.16,-1.08 1.75,-1.5 1.5,-0.67 0.84,-0.92 0.66,-1.5 1.34,-1.5 1.08,-2.16 0.25,-1.67 0.92,-2 v -4.58 l -0.92,-2 -0.25,-2.67 -1.58,-1.92 -0.67,-1.5 -3.67,-3.66 -4.41,-2.25 z m 3,7.91 h 5.92 l 2.41,1.25 3,4.17 0.09,3.67 -2.17,4.41 -0.92,1 -2.41,1.25 h -5.92 l -2.42,-1.25 -0.91,-1 -1.09,-2.16 v -6.92 z"
     id="path2" />
  <path
     fill="#049fd9"
     fill-rule="evenodd"
     d="m 148.75,109 -1,0.08 -2,0.92 -5,0.08 -2.17,1.67 -1.5,0.67 -3.66,3.66 -2.42,5.09 v 10.58 l 1.25,2.83 2.33,2.5 0.59,1.25 1.66,1 2.5,2.34 3.84,0.33 2,0.92 5,-0.09 1.58,-0.83 2.33,-0.17 0.59,-0.41 0.25,-0.75 v -5.42 l -0.5,-1 -2.25,-0.25 -2,0.92 -2,0.08 -2,-0.92 -1.67,-0.25 -4.17,-4 -0.41,-1.08 0.16,-6.25 3,-3.17 3.09,-1.41 h 7.5 l 0.75,-0.25 0.41,-0.59 0.09,-4.91 -0.42,-1.09 -1.08,-0.91 -2.67,-0.25 z"
     id="path3" />
  <path
     fill="#049fd9"
     fill-rule="evenodd"
     d="m 60.58,109.17 -1.41,0.75 -2.42,0.16 -1.33,0.75 -1.92,0.34 -2.67,2.41 -1.66,1 -0.59,1.25 -1.33,1.5 -2.17,4.42 -0.08,8 3.25,6.83 2.83,2.92 4.67,2.33 2.42,0.17 2,0.92 h 4.58 l 2,-0.92 1.67,-0.25 1.08,-0.92 0.42,-1.08 -0.17,-4.25 -0.92,-1.08 -0.66,-0.34 -2,-0.08 -1.75,0.83 -1.25,0.17 -2,-0.92 -1.67,-0.25 -2.42,-1.25 -0.91,-1 -1.17,-2.41 -0.08,-6 1.41,-3.09 1,-0.91 2.17,-1.09 6.25,-0.16 2,0.5 1.58,-0.67 0.59,-1.08 v -4.5 l -0.42,-1.09 -1.33,-1 -5,-0.08 -1.84,-0.83 z"
     id="path4" />
  <path
     fill="#049fd9"
     fill-rule="evenodd"
     d="m 76.17,45 -1.09,0.42 -1.66,1.66 -0.42,1.09 v 44.58 l 0.25,0.83 0.83,0.92 2.25,1.17 1,0.08 2.5,-1.25 0.84,-0.92 0.25,-0.83 V 48.17 L 80.5,47.08 78.83,45.42 77.75,45 Z"
     id="path5" />
  <path
     fill="#049fd9"
     fill-rule="evenodd"
     d="m 166.75,45 -1.25,0.17 -2.17,1.08 -0.91,0.83 -0.42,1.09 v 44.58 l 0.25,0.83 0.83,0.92 2.5,1.25 1,-0.08 2.25,-1.17 0.84,-0.92 0.25,-0.83 V 48.17 l -0.42,-1.09 -1.67,-1.66 z"
     id="path6" />
  <path
     fill="#049fd9"
     fill-rule="evenodd"
     d="m 188.17,60 -2.59,1.17 -1.58,3 v 19.58 l 1.58,3 1.92,1 1.25,0.17 1.08,-0.42 1.67,-1.67 0.42,-1.08 V 67.17 l 0.5,-2 -0.92,-3.09 -1.92,-1.83 z"
     id="path7" />
  <path
     fill="#049fd9"
     fill-rule="evenodd"
     d="m 99.17,60 -0.84,0.25 -2.91,2.83 -0.42,1.09 v 19.58 l 0.42,1.08 2.66,2.67 1.67,0.42 1.08,-0.42 1.67,-1.67 1.42,-3.08 V 66.17 l -0.84,-1.75 -0.58,-2.34 -1.92,-1.83 z"
     id="path8" />
  <path
     fill="#049fd9"
     fill-rule="evenodd"
     d="m 54.17,60 -1.09,0.42 -1.66,1.66 -1.42,3.09 v 17.58 l 1.25,2.83 1.83,1.92 1.09,0.42 h 1.58 l 1.08,-0.42 1.67,-1.67 0.42,-1.08 V 64.17 l -1.59,-3 -1.91,-1 z"
     id="path9" />
  <path
     fill="#049fd9"
     fill-rule="evenodd"
     d="m 144.33,60.17 -1,0.08 -2,1 -1.16,1.25 -0.17,6.25 -1,2.42 v 5.58 l 1,2.42 0.08,6 0.34,0.66 1.66,1.67 1.09,0.42 1.25,-0.17 1.91,-1 1.59,-3 V 64.17 l -1.17,-2.59 z"
     id="path10" />
  <path
     fill="#049fd9"
     fill-rule="evenodd"
     d="m 212.67,72 h -3.5 l -1.09,0.42 -0.91,1.08 -0.25,2.67 -0.92,2 0.17,5.25 1.25,2.41 1.66,1.67 1.09,0.42 1.41,-0.25 1.92,-1.84 1.42,-3.08 -0.09,-8 -1.08,-2.17 z"
     id="path11" />
  <path
     fill="#049fd9"
     fill-rule="evenodd"
     d="M 29.25,72 28.17,72.58 27,75.17 v 8.58 l 1.58,3 1.92,1 1.25,0.17 2.58,-1.17 1.5,-2.58 0.09,-10 -0.42,-1.09 -1.33,-1 z"
     id="path12" />
  <path
     fill="#049fd9"
     fill-rule="evenodd"
     d="m 118.83,72.08 -0.75,0.75 -0.16,2.34 -0.92,2 0.08,6 1.34,2.66 1.66,1.67 1.09,0.42 1.91,-0.09 0.67,-0.5 1,-1.91 0.25,-1.67 0.92,-2 v -3.58 l -0.92,-2 -0.17,-2.42 -0.33,-0.67 -1.33,-1 z"
     id="path13" />
</svg>
