<svg width="60" height="60" viewBox="0 0 60 60" fill="none" xmlns="http://www.w3.org/2000/svg">
<path d="M45.7354 29.2984C45.6989 28.5924 45.3112 27.9525 44.7063 27.6037C44.5359 27.5046 40.4562 25.2072 35.9463 26.2888C34.3347 26.6769 32.8023 27.3993 31.5297 28.1383V47.0089C31.5297 48.1483 30.6224 49.073 29.5 49.073C28.3776 49.073 27.4703 48.1483 27.4703 47.0089V28.1383C26.1977 27.3993 24.6673 26.6769 23.0537 26.2888C18.5397 25.2093 14.4662 27.5046 14.2937 27.6037C13.6888 27.9525 13.3011 28.5924 13.2646 29.2984C12.8668 37.4126 12.9175 42.1498 13.4168 43.378C15.2801 47.9398 25.8019 51.0794 28.9824 51.9319C29.1509 51.9773 29.3254 52 29.5 52C29.6746 52 29.8491 51.9773 30.0176 51.9319C33.1981 51.0794 43.7199 47.9398 45.5832 43.3759C46.0825 42.1478 46.1332 37.4105 45.7354 29.2984Z" fill="#183350"/>
<path d="M29.5118 25C34.8868 25 37.9 21.7817 38 15.9639C37.9078 10.3029 34.8142 7.03507 29.4882 7C24.1877 7.03507 21 10.4453 21 16.0361C21 21.5754 24.0367 25 29.5118 25Z" fill="#183350"/>
</svg>
