<svg width="60" height="60" viewBox="0 0 60 60" fill="none" xmlns="http://www.w3.org/2000/svg">
<path d="M29.4991 51C28.5048 51 27.5122 50.8621 26.5466 50.5864L14.4963 47.1468C10.6713 46.0546 8 42.5148 8 38.5381V15.1899C8 14.2016 8.80263 13.3994 9.79159 13.3994C10.7806 13.3994 11.5832 14.2016 11.5832 15.1899V38.5381C11.5832 40.9248 13.1867 43.0484 15.4817 43.7037L27.5319 47.1433C28.8201 47.5103 30.1799 47.5103 31.4699 47.1433L43.5183 43.7037C45.8133 43.0484 47.4168 40.9248 47.4168 38.5381V13.3994C47.4168 12.4111 48.2194 11.6089 49.2084 11.6089C50.1974 11.6089 51 12.4111 51 13.3994V38.5381C51 42.513 48.3287 46.0528 44.5037 47.1468L32.4534 50.5864C31.486 50.8621 30.4934 51 29.5009 51H29.4991ZM40.2899 8.30545C38.9856 7.82381 37.5326 7.94377 36.2409 8.45944L34.6696 9.08611C32.629 9.90079 31.2889 11.8775 31.2889 14.0745V40.0296C30.7013 40.18 30.1011 40.257 29.4973 40.257C28.8935 40.257 28.2934 40.18 27.7057 40.0296V14.0745C27.7057 11.8775 26.3674 9.90079 24.325 9.08611L22.752 8.45765C21.4602 7.94198 20.0072 7.82202 18.703 8.30545C16.5262 9.11118 15.1628 11.1398 15.1628 13.3583V36.1227C15.1628 38.5202 16.7537 40.6276 19.0595 41.2865L26.5412 43.4244C27.5051 43.6983 28.4994 43.8362 29.4937 43.8362C30.4881 43.8362 31.4824 43.6983 32.4463 43.4244L39.928 41.2865C42.2355 40.6276 43.8247 38.5202 43.8247 36.1227V13.3583C43.8247 11.1398 42.4595 9.10939 40.2827 8.30545H40.2899Z" fill="#183350"/>
</svg>
