<svg width="60" height="60" viewBox="0 0 60 60" fill="none" xmlns="http://www.w3.org/2000/svg">
<path d="M45.9886 51V54H13.8971V51C13.8971 46.0379 17.9466 41.9999 22.9228 41.9999H23.2859L29.9729 50L36.658 41.9999H36.9628C41.939 41.9999 45.9886 46.0379 45.9886 51ZM33.3967 6.78151C31.2967 5.7395 28.585 5.7395 26.485 6.78151L10 14.9996L26.485 23.2177C27.536 23.7417 28.7394 24.0037 29.9428 24.0037C31.1463 24.0037 32.3497 23.7417 33.4007 23.2177L45.9886 16.9436V30.0018H50V15.0016L33.3967 6.78151ZM41.9771 23.4137L35.1938 26.7957C33.6133 27.5857 31.7961 28.0037 29.9428 28.0037C28.0896 28.0037 26.2784 27.5877 24.6939 26.7957L17.9085 23.4137V25.9997C17.9085 32.6178 23.3059 37.9998 29.9428 37.9998C36.5798 37.9998 41.9771 32.6178 41.9771 25.9997V23.4137Z" fill="#183350"/>
</svg>
