<svg width="60" height="60" viewBox="0 0 60 60" fill="none" xmlns="http://www.w3.org/2000/svg">
<g clip-path="url(#clip0_398_486)">
<path d="M17.329 12.2712C16.1917 14.3997 17.0179 17.0595 19.1744 18.212C21.3305 19.3648 24.0018 18.5737 25.1386 16.4452C26.2762 14.3178 25.4493 11.6578 23.2941 10.5053C21.1374 9.35274 18.4664 10.1435 17.329 12.2712Z" fill="#183350"/>
<path d="M40.8241 21.8226C43.2639 21.8226 45.2419 19.8709 45.2419 17.4633C45.2419 15.0557 43.2639 13.104 40.8241 13.104C38.3842 13.104 36.4062 15.0557 36.4062 17.4633C36.4062 19.8709 38.3842 21.8226 40.8241 21.8226Z" fill="#183350"/>
<path d="M59.5398 35.2158L47.2397 22.9017C46.888 22.5497 46.4122 22.4357 45.9517 22.4357C43.3759 22.4357 38.2179 22.4357 35.6424 22.4357C35.1819 22.4357 34.7061 22.5497 34.3544 22.9017L29.7371 27.5242C29.6883 27.4557 29.6331 27.392 29.5718 27.3305L23.731 21.6022C23.5057 21.3811 23.2498 21.194 22.9712 21.0458L7.78023 12.9624C7.30085 12.7071 7.01553 12.1947 7.05131 11.6529L7.39182 6.46822L19.3144 5.55737C19.3714 5.55282 19.4303 5.54524 19.487 5.53433C20.3454 5.37271 20.9096 4.54585 20.748 3.68776C20.5861 2.82997 19.7593 2.26569 18.9012 2.42761L7.51614 4.57435L7.541 4.19049C7.59831 3.32027 6.93943 2.5683 6.06921 2.5116C5.18777 2.45581 4.44732 3.11317 4.39062 3.98339L4.31179 5.17835L0.444309 5.90758C0.175663 5.95943 -0.019909 6.20594 0.00161908 6.4849C0.02436 6.78568 0.286336 7.01036 0.587123 6.98762L4.21142 6.71049L3.86455 11.9843C3.76843 13.446 4.54435 14.8266 5.84271 15.5046L12.7005 19.0855C12.7005 19.0855 4.34726 34.7173 4.15017 35.0827C3.79117 35.7482 3.7472 36.5433 3.94096 37.0948C4.09893 37.5451 6.09468 43.23 6.81996 45.297C6.98673 45.7712 6.9464 46.2946 6.70929 46.7382L2.80512 54.0435C2.18869 55.1969 2.6238 56.6314 3.77722 57.2478C4.13228 57.4376 4.51463 57.528 4.89153 57.528C5.73688 57.528 6.55526 57.0738 6.98218 56.2754L11.1832 48.4146C11.8566 47.1551 11.9706 45.6697 11.4973 44.3216L9.8439 39.6109L18.4245 44.361C18.8702 44.6072 19.1901 45.0323 19.3044 45.5287L21.6607 55.7633C21.913 56.8588 22.8875 57.6005 23.966 57.6005C24.1419 57.6005 24.3208 57.5814 24.4997 57.5401C25.7741 57.2463 26.5694 55.9758 26.2759 54.7011L23.7768 43.8446C23.453 42.4365 22.5467 41.2324 21.2838 40.5302L15.091 37.0887L21.99 24.1804L27.332 29.5579C27.396 29.6221 27.4648 29.6794 27.5357 29.7304L22.0546 35.2125C21.4397 35.8277 21.4397 36.8262 22.0546 37.442C22.362 37.7494 22.7653 37.9038 23.1686 37.9038C23.5712 37.9038 23.9684 37.75 24.2759 37.4426L35.4957 26.2386L35.526 55.1648C35.526 56.4698 36.596 57.5274 37.9008 57.5274C39.2058 57.5274 40.2758 56.4698 40.2758 55.1648V45.0578H41.3531V55.1648C41.3531 56.4698 42.3926 57.5359 43.6973 57.5359H51.4228C52.7282 57.5359 53.7855 56.484 53.7855 55.1796C53.7855 53.8752 52.7282 52.8234 51.4228 52.8234H46.0681L46.0984 26.2489L57.3076 37.448C57.6159 37.7561 58.0213 37.9074 58.4243 37.9074C58.8273 37.9074 59.2321 37.7519 59.5395 37.4444C60.1532 36.8292 60.1547 35.8307 59.5398 35.2158Z" fill="#183350"/>
</g>
<defs>
<clipPath id="clip0_398_486">
<rect width="60" height="60" fill="white"/>
</clipPath>
</defs>
</svg>
